<svg xmlns="http://www.w3.org/2000/svg" viewBox="0 0 64 64">
  <defs>
    <linearGradient id="g" x1="0" y1="0" x2="1" y2="1">
      <stop offset="0" stop-color="#7c6cff"/>
      <stop offset="1" stop-color="#5b4ce0"/>
    </linearGradient>
  </defs>
  <rect width="64" height="64" rx="14" fill="url(#g)"/>
  <g fill="#fff">
    <g transform="translate(6.08 -1) scale(0.81)">
      <path fill-rule="evenodd"
            d="M18 29 L14.5 12 L27.5 19.5 Q32 18 36.5 19.5 L49.5 12 L46 29 Q50 34.5 50 40 Q50 54 32 54 Q14 54 14 40 Q14 34.5 18 29 Z
               M22 39.5 a3.2 4.2 0 1 0 6.4 0 a3.2 4.2 0 1 0 -6.4 0 Z
               M35.6 39.5 a3.2 4.2 0 1 0 6.4 0 a3.2 4.2 0 1 0 -6.4 0 Z
               M19.5 23 L18 16 L23.5 20 Z  M44.5 23 L46 16 L40.5 20 Z
               M29.6 46.5 L34.4 46.5 L32 49.8 Z"/>
    </g>
    <circle cx="22" cy="54" r="3.7"/>
    <circle cx="32" cy="54" r="3.7"/>
    <circle cx="42" cy="54" r="3.7"/>
  </g>
</svg>
