<svg xmlns="http://www.w3.org/2000/svg" viewBox="0 0 64 64">
  <defs>
    <linearGradient id="g" x1="0" y1="0" x2="1" y2="1">
      <stop offset="0" stop-color="#7c6cff"/>
      <stop offset="1" stop-color="#5b4ce0"/>
    </linearGradient>
  </defs>
  <rect width="64" height="64" rx="14" fill="url(#g)"/>
  <path fill="#fff" fill-rule="evenodd"
        d="M19 30 L15.8 14.5 L27.6 21.4 Q32 20 36.4 21.4 L48.2 14.5 L45 30 Q48.6 35 48.6 40 Q48.6 52.5 32 52.5 Q15.4 52.5 15.4 40 Q15.4 35 19 30 Z
           M23 39.5 a3 4 0 1 0 6 0 a3 4 0 1 0 -6 0 Z
           M35 39.5 a3 4 0 1 0 6 0 a3 4 0 1 0 -6 0 Z"/>
</svg>
